PathFileType	4	(X/Y/Z)	c:/Users/goper/Files/vsCode/490R/osim_files/C11/C11_Static01.trc
DataRate	CameraRate	NumFrames	NumMarkers	Units                	OrigDataRate	OrigDataStartFrame	OrigNumFrames
120.00	120.00	4	36	mm	120.0	953	1089
                Frame#	Time	LPSI			LASI			LTH1			LTH2			LTH3			LTH4			LLFE			LMFE			LSH1			LSH2			LSH3			LSH4			LLMA			LMMA			LCAL			LMTP			LTOE			LMTP			RPSI			RASI			RTH1			RTH2			RTH3			RTH4			RLFE			RMFE			RSH1			RSH2			RSH3			RSH4			RLMA			RMMA			RCAL			RMTP			RTOE			RMTP		
		X1	Y1	Z1	X2	Y2	Z2	X3	Y3	Z3	X4	Y4	Z4	X5	Y5	Z5	X6	Y6	Z6	X7	Y7	Z7	X8	Y8	Z8	X9	Y9	Z9	X10	Y10	Z10	X11	Y11	Z11	X12	Y12	Z12	X13	Y13	Z13	X14	Y14	Z14	X15	Y15	Z15	X16	Y16	Z16	X17	Y17	Z17	X18	Y18	Z18	X19	Y19	Z19	X20	Y20	Z20	X21	Y21	Z21	X22	Y22	Z22	X23	Y23	Z23	X24	Y24	Z24	X25	Y25	Z25	X26	Y26	Z26	X27	Y27	Z27	X28	Y28	Z28	X29	Y29	Z29	X30	Y30	Z30	X31	Y31	Z31	X32	Y32	Z32	X33	Y33	Z33	X34	Y34	Z34	X35	Y35	Z35	X36	Y36	Z36

953	7.93333	-373.97620	1018.39111	481.15500	-202.11015	1007.88416	399.45801	-323.06628	644.52936	312.94879	-319.93228	597.06982	310.09909	-262.56543	643.60364	307.63147	-268.43646	597.15808	308.87637	-318.52448	516.39246	304.64746	-297.84778	501.63974	413.45441	-377.96774	413.98520	290.95889	-378.26965	369.38959	286.70572	-316.90225	410.24091	279.10779	-325.52832	365.94659	276.69852	-352.96713	96.98897	311.24832	-315.08459	110.39207	402.52878	-405.11285	58.82888	370.21469	-243.93089	40.42568	268.18198	-165.71165	57.62769	329.98102	-201.93246	45.65451	379.52576	-363.43427	1031.14905	564.70612	-194.72226	1000.82056	630.71039	-296.86920	632.34656	706.56677	-292.74677	588.37622	706.32587	-234.64290	630.39020	697.41608	-240.58278	587.81384	700.05151	-275.35696	520.35138	699.38971	-302.38593	488.00244	590.44806	-345.60562	415.05176	728.03540	-340.89600	369.16748	730.88391	-283.73206	413.01764	722.19177	-287.96310	366.09219	727.86481	-326.85596	98.57240	711.64130	-298.61423	105.37290	617.55817	-387.56412	58.82260	664.40582	-171.44862	48.95097	643.09650	-168.13081	61.74219	692.56354	-209.27399	38.88379	753.78833
954	7.94167	-373.95108	1018.43414	481.12057	-202.04979	1007.88580	399.47321	-322.95587	644.52686	312.94983	-319.82101	597.09125	310.07501	-262.45914	643.62683	307.62955	-268.32297	597.15790	308.89304	-318.41864	516.41333	304.64981	-297.78427	501.63580	413.44498	-377.90277	414.01855	290.93347	-378.21158	369.41525	286.68103	-316.86349	410.24158	279.12164	-325.45612	365.96484	276.70871	-352.91895	97.02188	311.23618	-315.07825	110.41891	402.51712	-405.15225	58.88742	370.20593	-244.04463	40.24770	268.33249	-165.71175	57.63521	329.96600	-201.92302	45.66900	379.50275	-363.43478	1031.20581	564.62823	-194.70750	1000.84607	630.70770	-296.85803	632.38843	706.54907	-292.73819	588.42206	706.31781	-234.63625	630.39709	697.42499	-240.57948	587.82294	700.05908	-275.33835	520.36597	699.36823	-302.30667	488.01334	590.43073	-345.59555	415.09872	728.01733	-340.89178	369.24094	730.85602	-283.70367	413.05060	722.16858	-287.92731	366.10764	727.84906	-326.82831	98.62083	711.61780	-298.57550	105.38816	617.56732	-387.59933	58.91734	664.37170	-171.44405	48.95745	643.08307	-168.11639	61.77096	692.55341	-209.24942	38.90939	753.76471
955	7.95000	-373.92346	1018.48151	481.07901	-201.93672	1007.87238	399.49988	-322.87289	644.55072	312.93738	-319.70978	597.10834	310.05194	-262.32678	643.63074	307.62875	-268.23074	597.14520	308.90909	-318.32117	516.43695	304.65100	-297.70172	501.56201	413.46967	-377.80417	414.05475	290.89908	-378.14774	369.45541	286.66376	-316.91714	410.04984	279.21634	-325.37717	365.95679	276.73383	-352.88800	97.03133	311.23621	-315.00516	110.37309	402.53998	-405.13193	58.95712	370.20200	-243.90202	40.40446	268.21365	-165.68719	57.57658	330.00403	-201.93861	45.58336	379.53369	-363.38339	1031.21667	564.63184	-194.68285	1000.77533	630.75690	-296.77289	632.35638	706.56860	-292.66147	588.40057	706.33185	-234.61684	630.31512	697.47388	-240.55034	587.77588	700.07617	-275.28854	520.29663	699.38257	-302.23035	488.04620	590.42682	-345.52231	415.07275	728.04480	-340.80334	369.19650	730.87360	-283.68097	412.94897	722.22656	-287.92438	366.05096	727.87659	-326.75458	98.57867	711.63696	-298.51694	105.38107	617.57697	-387.53650	58.91869	664.38129	-171.41988	48.88950	643.12830	-168.08992	61.68608	692.60107	-209.21190	38.87329	753.78998
956	7.95833	-373.89221	1018.50482	481.06052	-201.86389	1007.88208	399.53159	-322.78830	644.54730	312.93378	-319.63596	597.10529	310.05606	-262.24066	643.62659	307.62640	-268.14371	597.15698	308.90585	-318.26245	516.41309	304.65338	-297.55194	501.63129	413.42853	-377.75357	414.05112	290.88828	-378.11896	369.46982	286.68066	-316.88443	410.04184	279.21671	-325.32632	365.94565	276.74576	-352.85861	97.01195	311.23026	-314.99615	110.31383	402.55264	-405.18454	59.00951	370.21500	-243.87289	40.34675	268.25665	-165.68585	57.50271	330.04758	-201.91107	45.51725	379.56625	-363.28183	1031.13171	564.68420	-194.70360	1000.70892	630.79132	-296.73679	632.30896	706.60291	-292.58774	588.34808	706.36475	-234.62703	630.26721	697.50507	-240.54503	587.71466	700.10724	-275.25375	520.21613	699.41486	-302.17334	488.04831	590.42377	-345.46973	415.07635	728.07312	-340.76999	369.14059	730.90131	-283.73694	412.83966	722.25378	-287.93057	365.98404	727.86963	-326.70422	98.52634	711.66949	-298.49677	105.38446	617.58563	-387.49750	58.84516	664.45911	-171.42061	48.79790	643.20007	-168.11089	61.62924	692.62836	-209.22995	38.83610	753.81183
